<svg xmlns="http://www.w3.org/2000/svg" viewBox="0 0 48 48"><defs><style>.cls-1{fill:#201602;}</style></defs><title>Asset 58ldpi</title><g id="Layer_2" data-name="Layer 2"><g id="layer_1-2" data-name="layer 1"><path class="cls-1" d="M24,24a1,1,0,0,1-.75-.34l-7-8,1.5-1.32L24,21.48l6.25-7.14,1.5,1.32-7,8A1,1,0,0,1,24,24Z"/><path class="cls-1" d="M24,48A24,24,0,1,1,48,24,24,24,0,0,1,24,48ZM24,2A22,22,0,1,0,46,24,22,22,0,0,0,24,2Z"/><path class="cls-1" d="M24,40A16,16,0,1,1,40,24,16,16,0,0,1,24,40Zm0-30A14,14,0,1,0,38,24,14,14,0,0,0,24,10Z"/><rect class="cls-1" x="4" y="23" width="2" height="2"/><rect class="cls-1" x="42" y="23" width="2" height="2"/><rect class="cls-1" x="33" y="7" width="2" height="2"/><rect class="cls-1" x="23" y="4" width="2" height="2"/><rect class="cls-1" x="23" y="42" width="2" height="2"/><rect class="cls-1" x="13" y="7" width="2" height="2"/><rect class="cls-1" x="33" y="39" width="2" height="2"/><rect class="cls-1" x="13" y="39" width="2" height="2"/><rect class="cls-1" x="6" y="14" width="2" height="2"/><rect class="cls-1" x="6" y="32" width="2" height="2"/><rect class="cls-1" x="40" y="14" width="2" height="2"/><rect class="cls-1" x="40" y="32" width="2" height="2"/><rect class="cls-1" x="23" y="23" width="2" height="12"/><rect class="cls-1" x="19" y="25" width="10" height="2"/><rect class="cls-1" x="19" y="29" width="10" height="2"/></g></g></svg>